<svg xmlns="http://www.w3.org/2000/svg" id="SvgjsSvg18073" width="4096" height="1561.728457944269" version="1.1" xmlns:xlink="http://www.w3.org/1999/xlink" xmlns:svgjs="http://svgjs.com/svgjs"><defs id="SvgjsDefs18074"></defs><g id="SvgjsG18075" transform="translate(328, 328.00000000000006) scale(34.4)" opacity="1"><defs id="SvgjsDefs6202"></defs><g id="SvgjsG6203" transform="scale(0.21645021645021645)" opacity="1"><g id="SvgjsG6204" class="schoekQ4O" transform="translate(7.105427357601002e-15, 7.105427357601002e-15) scale(1.1832824732214626)" light-content="false" non-strokable="false" fill="#080808"><path d="M51.4 0C23 0 0 23 0 51.4s23 51.4 51.4 51.4 51.4-23 51.4-51.4S79.7 0 51.4 0zm0 101C24 101 1.7 78.8 1.7 51.4S24 1.7 51.4 1.7C78.8 1.7 101 24 101 51.4S78.8 101 51.4 101z"></path></g><g id="SvgjsG6205" class="3Xm4ggGmyn" transform="translate(25.877239774393136, 25.87707428026103) scale(0.6988625983578176)" light-content="false" non-strokable="false" fill="#000000"><path d="M44.492 76.473l15.137-51.902c.441-1.379-.898-2.984-2.332-2.805a2.211 2.211 0 0 0-1.79 1.59L40.372 75.254c-.473 1.117.215 2.574 1.379 2.918s2.531-.504 2.742-1.7zm23.129-9.211c.602.965 2.027 1.293 2.992.691l25.95-16.219c1.25-.77 1.25-2.914 0-3.683l-25.95-16.215c-.496-.324-1.043-.348-1.453-.336-.898.098-1.691.82-1.879 1.703-.183.883.25 1.863 1.031 2.316l23.012 14.395-23.012 14.36c-.96.6-1.293 2.023-.691 2.988zM3.438 48.055c-1.25.77-1.25 2.914 0 3.684l25.949 16.219c.964.601 2.39.273 2.992-.692.601-.965.273-2.39-.692-2.992L8.675 49.915 31.687 35.52c.832-.461 1.285-1.512 1.047-2.434-.238-.921-1.144-1.62-2.094-1.62-.457-.012-.89.226-1.25.37z"></path></g><g id="SvgjsG6206" class="text" transform="translate(306.904235993663, 60.58172686211487) scale(1)" light-content="false" fill="#080808"><path d="M-118.2 0L-118.2 -31.67C-118.2 -32.11 -118.28 -32.52 -118.44 -32.91C-118.6 -33.3 -118.83 -33.64 -119.12 -33.93C-119.42 -34.23 -119.76 -34.45 -120.14 -34.62C-120.53 -34.78 -120.95 -34.86 -121.38 -34.86L-135.63 -34.86C-138.14 -34.86 -140.46 -34.43 -142.58 -33.57C-144.7 -32.71 -146.54 -31.51 -148.1 -29.97C-149.65 -28.43 -150.87 -26.59 -151.75 -24.45C-152.62 -22.32 -153.06 -19.97 -153.06 -17.43L-153.06 0L-146.74 0L-146.74 -8.56L-124.52 -8.56L-124.52 0ZM-146.74 -14.88L-146.74 -17.43C-146.74 -19.2 -146.49 -20.7 -146 -21.94C-145.5 -23.18 -144.87 -24.21 -144.11 -25.04C-143.35 -25.86 -142.52 -26.51 -141.61 -26.98C-140.7 -27.45 -139.84 -27.8 -139.02 -28.03C-138.2 -28.25 -137.48 -28.4 -136.86 -28.45C-136.23 -28.51 -135.82 -28.54 -135.63 -28.54L-124.52 -28.54L-124.52 -14.88Z M-76.46 -3.18L-76.46 -17.43C-76.46 -17.87 -76.54 -18.28 -76.71 -18.66C-76.87 -19.04 -77.09 -19.37 -77.37 -19.67C-77.66 -19.96 -77.99 -20.19 -78.38 -20.36C-78.77 -20.53 -79.19 -20.61 -79.65 -20.61L-99.6 -20.61L-99.6 -14.24L-82.78 -14.24L-82.78 -6.32L-102.45 -6.32C-103.26 -6.32 -103.89 -6.54 -104.33 -6.99C-104.78 -7.43 -105 -8.06 -105 -8.87L-105 -25.94C-105 -26.8 -104.78 -27.44 -104.34 -27.88C-103.91 -28.32 -103.27 -28.54 -102.45 -28.54L-76.75 -28.54L-76.75 -34.86L-102.45 -34.86C-103.53 -34.86 -104.51 -34.72 -105.36 -34.45C-106.22 -34.17 -106.98 -33.8 -107.64 -33.34C-108.29 -32.88 -108.86 -32.35 -109.33 -31.75C-109.8 -31.15 -110.18 -30.52 -110.47 -29.86C-110.76 -29.21 -110.98 -28.54 -111.11 -27.87C-111.25 -27.2 -111.32 -26.57 -111.32 -25.99L-111.32 -8.87C-111.32 -7.79 -111.18 -6.81 -110.91 -5.94C-110.63 -5.08 -110.26 -4.31 -109.8 -3.66C-109.34 -3 -108.81 -2.44 -108.21 -1.98C-107.61 -1.52 -106.98 -1.14 -106.32 -0.85C-105.67 -0.56 -105 -0.34 -104.33 -0.21C-103.66 -0.07 -103.03 0 -102.45 0L-79.65 0C-79.19 0 -78.77 -0.08 -78.38 -0.24C-77.99 -0.41 -77.66 -0.63 -77.37 -0.91C-77.09 -1.2 -76.87 -1.53 -76.71 -1.92C-76.54 -2.31 -76.46 -2.73 -76.46 -3.18Z M-41.21 -14.24L-41.21 -20.61L-61.17 -20.61L-61.17 -14.24ZM-38.37 0L-38.37 -6.32L-61.12 -6.32C-61.97 -6.32 -62.61 -6.54 -63.04 -6.98C-63.48 -7.41 -63.7 -8.05 -63.7 -8.87L-63.7 -28.54L-38.37 -28.54L-38.37 -34.86L-66.84 -34.86C-67.29 -34.86 -67.71 -34.78 -68.1 -34.62C-68.49 -34.45 -68.83 -34.23 -69.11 -33.93C-69.39 -33.64 -69.62 -33.3 -69.78 -32.91C-69.94 -32.52 -70.02 -32.11 -70.02 -31.67L-70.02 -8.87C-70.02 -7.24 -69.72 -5.85 -69.13 -4.73C-68.54 -3.6 -67.8 -2.69 -66.92 -1.98C-66.04 -1.28 -65.08 -0.77 -64.04 -0.46C-63 -0.15 -62.05 0 -61.17 0Z M2.56 -2.7L2.56 -34.86L-3.76 -34.86L-3.76 -10.31L-26.85 -34.4C-27.3 -34.87 -27.85 -35.16 -28.48 -35.28C-29.11 -35.41 -29.73 -35.34 -30.32 -35.1C-30.89 -34.84 -31.36 -34.45 -31.72 -33.92C-32.09 -33.4 -32.27 -32.81 -32.27 -32.16L-32.27 0L-25.95 0L-25.95 -24.55L-2.86 -0.44C-2.55 -0.11 -2.2 0.12 -1.8 0.27C-1.4 0.41 -1.01 0.49 -0.62 0.49C-0.18 0.49 0.23 0.41 0.62 0.24C1.01 0.08 1.35 -0.14 1.63 -0.43C1.91 -0.71 2.14 -1.05 2.31 -1.43C2.48 -1.82 2.56 -2.24 2.56 -2.7Z M46.49 -14.1L46.49 -20.76C46.49 -22.87 46.13 -24.81 45.4 -26.61C44.67 -28.4 43.65 -29.94 42.36 -31.22C41.06 -32.51 39.53 -33.52 37.75 -34.25C35.98 -34.98 34.04 -35.34 31.95 -35.34L23.4 -35.34C21.31 -35.34 19.37 -34.98 17.59 -34.25C15.8 -33.52 14.26 -32.51 12.97 -31.22C11.67 -29.94 10.66 -28.4 9.92 -26.61C9.18 -24.81 8.81 -22.87 8.81 -20.76L8.81 -14.1C8.81 -11.98 9.18 -10.02 9.92 -8.24C10.66 -6.46 11.67 -4.92 12.97 -3.62C14.26 -2.33 15.8 -1.32 17.59 -0.6C19.37 0.13 21.31 0.49 23.4 0.49L31.95 0.49C34.04 0.49 35.98 0.13 37.75 -0.6C39.53 -1.32 41.06 -2.33 42.36 -3.62C43.65 -4.92 44.67 -6.46 45.4 -8.24C46.13 -10.02 46.49 -11.98 46.49 -14.1ZM40.17 -20.76L40.17 -14.1C40.17 -12.85 39.97 -11.72 39.57 -10.71C39.18 -9.69 38.61 -8.83 37.88 -8.11C37.16 -7.39 36.28 -6.83 35.27 -6.43C34.26 -6.03 33.14 -5.83 31.9 -5.83L23.4 -5.83C22.17 -5.83 21.04 -6.03 20.03 -6.43C19.02 -6.83 18.15 -7.39 17.42 -8.11C16.69 -8.83 16.12 -9.69 15.73 -10.71C15.33 -11.72 15.13 -12.85 15.13 -14.1L15.13 -20.76C15.13 -22.01 15.33 -23.14 15.73 -24.15C16.12 -25.16 16.69 -26.03 17.42 -26.75C18.15 -27.47 19.02 -28.03 20.03 -28.43C21.04 -28.83 22.17 -29.02 23.4 -29.02L31.95 -29.02C33.17 -29.02 34.28 -28.83 35.3 -28.43C36.31 -28.03 37.18 -27.47 37.9 -26.75C38.62 -26.03 39.18 -25.16 39.57 -24.15C39.97 -23.14 40.17 -22.01 40.17 -20.76Z M87.57 -23.14L87.57 -27.18C87.57 -27.95 87.44 -28.79 87.17 -29.68C86.9 -30.57 86.46 -31.4 85.86 -32.17C85.25 -32.94 84.46 -33.58 83.49 -34.09C82.51 -34.6 81.32 -34.86 79.91 -34.86L55.92 -34.86C55.47 -34.86 55.05 -34.78 54.66 -34.62C54.27 -34.45 53.93 -34.23 53.65 -33.93C53.37 -33.64 53.14 -33.3 52.98 -32.91C52.82 -32.52 52.74 -32.11 52.74 -31.67L52.74 0L59.06 0L59.06 -28.54L79.91 -28.54C80.04 -28.54 80.19 -28.53 80.34 -28.51C80.49 -28.5 80.64 -28.44 80.78 -28.36C80.91 -28.27 81.03 -28.13 81.12 -27.94C81.21 -27.76 81.25 -27.48 81.25 -27.13L81.25 -23.14C81.25 -22.32 81.12 -21.58 80.86 -20.94C80.6 -20.3 80.23 -19.75 79.76 -19.3C79.28 -18.85 78.71 -18.49 78.05 -18.22C77.4 -17.95 76.67 -17.79 75.88 -17.72L61.59 -17.72L61.59 -11.4L66.13 -11.4L79.31 0L89.08 0L75.88 -11.4C76.66 -11.4 77.49 -11.49 78.37 -11.67C79.25 -11.85 80.13 -12.13 81 -12.53C81.86 -12.93 82.69 -13.43 83.49 -14.05C84.28 -14.67 84.98 -15.41 85.59 -16.27C86.2 -17.14 86.68 -18.14 87.04 -19.28C87.39 -20.41 87.57 -21.7 87.57 -23.14Z M116.21 0L116.21 -34.86L109.89 -34.86L109.89 0Z M155.1 -28.54L155.1 -34.86L120.9 -34.86L120.9 -28.54L134.85 -28.54L134.85 0L141.17 0L141.17 -28.54Z"></path></g><g id="SvgjsG6207" class="text" transform="translate(309.2967076761107, 86.04918108761669) scale(1)" light-content="false" fill="#080808"><path d="M-142.8 -11.23L-144.27 -11.23L-144.27 -6.37L-149.97 -6.37L-149.97 -11.23L-151.42 -11.23L-151.42 0L-149.97 0L-149.97 -5.19L-144.27 -5.19L-144.27 0L-142.8 0Z M-139.03 -11.23L-140.48 -11.23L-140.48 0L-139.03 0Z M-128.31 -10.37C-129.2 -11.02 -130.3 -11.34 -131.6 -11.34C-132.68 -11.34 -133.63 -11.1 -134.46 -10.61C-135.28 -10.12 -135.93 -9.44 -136.39 -8.58C-136.85 -7.71 -137.08 -6.72 -137.08 -5.61C-137.08 -4.49 -136.85 -3.5 -136.39 -2.64C-135.93 -1.77 -135.28 -1.1 -134.46 -0.61C-133.63 -0.13 -132.67 0.11 -131.59 0.11C-130.6 0.11 -129.72 -0.1 -128.94 -0.53C-128.17 -0.95 -127.55 -1.52 -127.1 -2.25C-126.64 -2.97 -126.36 -3.78 -126.27 -4.67L-126.27 -6.01L-131.91 -6.01L-131.91 -4.92L-127.49 -4.92C-127.57 -4.16 -127.79 -3.49 -128.15 -2.92C-128.52 -2.36 -128.99 -1.92 -129.56 -1.62C-130.14 -1.33 -130.77 -1.18 -131.46 -1.18C-132.27 -1.18 -132.98 -1.36 -133.6 -1.71C-134.22 -2.07 -134.71 -2.58 -135.06 -3.24C-135.41 -3.91 -135.59 -4.69 -135.59 -5.61C-135.59 -6.5 -135.41 -7.28 -135.07 -7.93C-134.72 -8.59 -134.25 -9.1 -133.64 -9.45C-133.04 -9.81 -132.35 -9.99 -131.59 -9.99C-130.74 -9.99 -130 -9.78 -129.38 -9.37C-128.76 -8.95 -128.32 -8.41 -128.05 -7.73L-126.52 -7.73C-126.83 -8.84 -127.43 -9.72 -128.31 -10.37Z M-115.69 -11.23L-117.15 -11.23L-117.15 -6.37L-122.86 -6.37L-122.86 -11.23L-124.31 -11.23L-124.31 0L-122.86 0L-122.86 -5.19L-117.15 -5.19L-117.15 0L-115.69 0Z M-108.39 -6.45L-114.77 -6.45L-114.77 -5.23L-108.39 -5.23Z M-96.51 2.18L-94.68 2.18L-97.59 -0.61C-96.75 -1.08 -96.09 -1.76 -95.62 -2.64C-95.14 -3.51 -94.9 -4.51 -94.9 -5.62C-94.9 -6.73 -95.14 -7.72 -95.62 -8.59C-96.09 -9.47 -96.75 -10.15 -97.58 -10.64C-98.42 -11.13 -99.35 -11.37 -100.4 -11.37C-101.44 -11.37 -102.38 -11.13 -103.22 -10.64C-104.07 -10.15 -104.73 -9.47 -105.21 -8.59C-105.68 -7.72 -105.92 -6.73 -105.92 -5.62C-105.92 -4.52 -105.68 -3.53 -105.21 -2.65C-104.73 -1.78 -104.07 -1.09 -103.22 -0.61C-102.38 -0.12 -101.44 0.13 -100.4 0.13C-99.84 0.13 -99.3 0.05 -98.77 -0.1ZM-103.91 -3.3C-104.25 -3.97 -104.43 -4.74 -104.43 -5.62C-104.43 -6.52 -104.25 -7.29 -103.91 -7.96C-103.56 -8.62 -103.09 -9.13 -102.47 -9.49C-101.86 -9.84 -101.17 -10.02 -100.4 -10.02C-99.63 -10.02 -98.94 -9.84 -98.33 -9.49C-97.72 -9.13 -97.24 -8.62 -96.9 -7.96C-96.55 -7.29 -96.38 -6.52 -96.38 -5.62C-96.38 -4.74 -96.55 -3.97 -96.9 -3.31C-97.24 -2.64 -97.72 -2.13 -98.33 -1.77C-98.94 -1.41 -99.63 -1.23 -100.4 -1.23C-101.17 -1.23 -101.86 -1.4 -102.47 -1.76C-103.09 -2.12 -103.56 -2.63 -103.91 -3.3Z M-91.57 -11.23L-93.02 -11.23L-93.02 -4.49C-93.02 -2.96 -92.64 -1.81 -91.88 -1.04C-91.12 -0.27 -90.11 0.11 -88.85 0.11C-87.57 0.11 -86.55 -0.27 -85.8 -1.04C-85.04 -1.81 -84.66 -2.96 -84.66 -4.49L-84.66 -11.23L-86.11 -11.23L-86.11 -4.49C-86.11 -3.4 -86.34 -2.59 -86.82 -2.06C-87.3 -1.52 -87.96 -1.26 -88.81 -1.26C-89.67 -1.26 -90.35 -1.52 -90.84 -2.05C-91.33 -2.57 -91.57 -3.39 -91.57 -4.49Z M-75.83 -2.6L-74.89 0L-73.33 0L-77.47 -11.02L-79.11 -11.02L-83.27 0L-81.71 0L-80.77 -2.6ZM-76.24 -3.73L-80.35 -3.73L-78.3 -9.4Z M-70.41 -1.13L-70.41 -11.23L-71.86 -11.23L-71.86 0L-66.43 0L-66.43 -1.13Z M-63.5 -11.23L-64.95 -11.23L-64.95 0L-63.5 0Z M-54.29 -11.23L-62.08 -11.23L-62.08 -10.05L-58.91 -10.05L-58.91 0L-57.46 0L-57.46 -10.05L-54.29 -10.05Z M-44.88 -11.23L-46.53 -11.23L-49.27 -5.8L-52.03 -11.23L-53.72 -11.23L-50.02 -4.25L-50.02 0L-48.56 0L-48.56 -4.25Z M-32.75 -1.43C-32.5 -1.89 -32.37 -2.38 -32.37 -2.92C-32.37 -3.63 -32.53 -4.2 -32.83 -4.63C-33.14 -5.06 -33.52 -5.38 -33.96 -5.59C-34.4 -5.8 -34.98 -6.03 -35.7 -6.26C-36.3 -6.45 -36.76 -6.62 -37.1 -6.78C-37.44 -6.93 -37.73 -7.14 -37.96 -7.42C-38.18 -7.69 -38.3 -8.04 -38.3 -8.48C-38.3 -9.03 -38.12 -9.45 -37.77 -9.76C-37.42 -10.06 -36.95 -10.21 -36.37 -10.21C-35.73 -10.21 -35.23 -10.04 -34.86 -9.7C-34.48 -9.36 -34.26 -8.97 -34.17 -8.52L-32.61 -8.52C-32.72 -9.35 -33.09 -10.03 -33.74 -10.57C-34.39 -11.11 -35.27 -11.37 -36.37 -11.37C-37.08 -11.37 -37.7 -11.25 -38.23 -11.01C-38.75 -10.76 -39.16 -10.42 -39.44 -9.97C-39.72 -9.53 -39.86 -9.01 -39.86 -8.43C-39.86 -7.75 -39.71 -7.2 -39.4 -6.79C-39.1 -6.37 -38.74 -6.06 -38.31 -5.85C-37.88 -5.65 -37.3 -5.43 -36.59 -5.19C-35.99 -5 -35.51 -4.82 -35.16 -4.66C-34.81 -4.5 -34.51 -4.27 -34.28 -3.98C-34.04 -3.7 -33.92 -3.32 -33.92 -2.87C-33.92 -2.34 -34.09 -1.9 -34.43 -1.56C-34.77 -1.22 -35.25 -1.05 -35.89 -1.05C-36.38 -1.05 -36.8 -1.15 -37.14 -1.35C-37.49 -1.54 -37.75 -1.79 -37.94 -2.09C-38.12 -2.4 -38.23 -2.71 -38.27 -3.03L-39.81 -3.03C-39.76 -2.42 -39.56 -1.88 -39.21 -1.41C-38.87 -0.94 -38.41 -0.57 -37.83 -0.29C-37.25 -0.02 -36.59 0.11 -35.84 0.11C-35.08 0.11 -34.44 -0.03 -33.92 -0.32C-33.4 -0.61 -33.01 -0.98 -32.75 -1.43Z M-22.47 -10.64C-23.3 -11.13 -24.24 -11.37 -25.28 -11.37C-26.32 -11.37 -27.27 -11.13 -28.11 -10.64C-28.95 -10.15 -29.62 -9.47 -30.09 -8.59C-30.57 -7.72 -30.81 -6.73 -30.81 -5.62C-30.81 -4.52 -30.57 -3.53 -30.09 -2.65C-29.62 -1.78 -28.95 -1.09 -28.11 -0.61C-27.27 -0.12 -26.32 0.13 -25.28 0.13C-24.24 0.13 -23.3 -0.12 -22.47 -0.61C-21.64 -1.09 -20.98 -1.78 -20.5 -2.65C-20.02 -3.53 -19.79 -4.52 -19.79 -5.62C-19.79 -6.73 -20.02 -7.72 -20.5 -8.59C-20.98 -9.47 -21.64 -10.15 -22.47 -10.64ZM-27.36 -9.49C-26.75 -9.84 -26.06 -10.02 -25.28 -10.02C-24.52 -10.02 -23.83 -9.84 -23.22 -9.49C-22.61 -9.13 -22.13 -8.62 -21.79 -7.96C-21.44 -7.29 -21.27 -6.52 -21.27 -5.62C-21.27 -4.74 -21.44 -3.97 -21.79 -3.31C-22.13 -2.64 -22.61 -2.13 -23.22 -1.77C-23.83 -1.41 -24.52 -1.23 -25.28 -1.23C-26.06 -1.23 -26.75 -1.4 -27.36 -1.76C-27.97 -2.12 -28.45 -2.63 -28.79 -3.3C-29.14 -3.97 -29.31 -4.74 -29.31 -5.62C-29.31 -6.52 -29.14 -7.29 -28.79 -7.96C-28.45 -8.62 -27.97 -9.13 -27.36 -9.49Z M-11.47 -11.23L-17.83 -11.23L-17.83 0L-16.38 0L-16.38 -5.03L-12.22 -5.03L-12.22 -6.17L-16.38 -6.17L-16.38 -10.05L-11.47 -10.05Z M-2.87 -11.23L-10.66 -11.23L-10.66 -10.05L-7.49 -10.05L-7.49 0L-6.04 0L-6.04 -10.05L-2.87 -10.05Z M12.38 -11.23L10.79 -11.23L8.62 -1.72L5.96 -11.23L4.35 -11.23L1.69 -1.69L-0.46 -11.23L-2.07 -11.23L0.8 0L2.56 0L5.16 -9.18L7.76 0L9.53 0Z M20.66 -2.6L21.6 0L23.16 0L19.02 -11.02L17.38 -11.02L13.22 0L14.78 0L15.72 -2.6ZM20.25 -3.73L16.14 -3.73L18.19 -9.4Z M30.59 0L32.23 0L29.17 -4.64C30.14 -4.77 30.87 -5.12 31.38 -5.68C31.89 -6.24 32.15 -6.97 32.15 -7.89C32.15 -8.89 31.83 -9.7 31.19 -10.32C30.56 -10.93 29.6 -11.23 28.32 -11.23L24.63 -11.23L24.63 0L26.08 0L26.08 -4.59L27.66 -4.59ZM26.08 -5.64L26.08 -9.97L28.2 -9.97C29.84 -9.97 30.67 -9.25 30.67 -7.81C30.67 -6.36 29.84 -5.64 28.2 -5.64Z M35.37 -10.05L40.11 -10.05L40.11 -11.23L33.92 -11.23L33.92 0L40.11 0L40.11 -1.18L35.37 -1.18L35.37 -5.1L39.64 -5.1L39.64 -6.21L35.37 -6.21Z M54.69 -2.65C55.15 -3.5 55.38 -4.49 55.38 -5.62C55.38 -6.77 55.15 -7.77 54.69 -8.61C54.23 -9.45 53.56 -10.1 52.68 -10.55C51.79 -11.01 50.72 -11.23 49.48 -11.23L45.91 -11.23L45.91 0L49.48 0C50.72 0 51.79 -0.23 52.68 -0.69C53.56 -1.15 54.23 -1.81 54.69 -2.65ZM52.73 -2.44C51.96 -1.68 50.84 -1.31 49.37 -1.31L47.36 -1.31L47.36 -9.96L49.37 -9.96C50.85 -9.96 51.97 -9.58 52.74 -8.82C53.51 -8.06 53.89 -6.99 53.89 -5.62C53.89 -4.25 53.51 -3.19 52.73 -2.44Z M58.78 -10.05L63.53 -10.05L63.53 -11.23L57.33 -11.23L57.33 0L63.53 0L63.53 -1.18L58.78 -1.18L58.78 -5.1L63.05 -5.1L63.05 -6.21L58.78 -6.21Z M66.13 -11.23L64.54 -11.23L68.65 0L70.48 0L74.6 -11.23L73.03 -11.23L69.55 -1.61Z M77.52 -10.05L82.27 -10.05L82.27 -11.23L76.07 -11.23L76.07 0L82.27 0L82.27 -1.18L77.52 -1.18L77.52 -5.1L81.79 -5.1L81.79 -6.21L77.52 -6.21Z M85.58 -1.13L85.58 -11.23L84.13 -11.23L84.13 0L89.56 0L89.56 -1.13Z M99 -10.64C98.17 -11.13 97.23 -11.37 96.19 -11.37C95.15 -11.37 94.21 -11.13 93.36 -10.64C92.52 -10.15 91.86 -9.47 91.38 -8.59C90.9 -7.72 90.66 -6.73 90.66 -5.62C90.66 -4.52 90.9 -3.53 91.38 -2.65C91.86 -1.78 92.52 -1.09 93.36 -0.61C94.21 -0.12 95.15 0.13 96.19 0.13C97.23 0.13 98.17 -0.12 99 -0.61C99.84 -1.09 100.49 -1.78 100.97 -2.65C101.45 -3.53 101.69 -4.52 101.69 -5.62C101.69 -6.73 101.45 -7.72 100.97 -8.59C100.49 -9.47 99.84 -10.15 99 -10.64ZM94.11 -9.49C94.72 -9.84 95.41 -10.02 96.19 -10.02C96.95 -10.02 97.64 -9.84 98.25 -9.49C98.86 -9.13 99.34 -8.62 99.69 -7.96C100.03 -7.29 100.2 -6.52 100.2 -5.62C100.2 -4.74 100.03 -3.97 99.69 -3.31C99.34 -2.64 98.86 -2.13 98.25 -1.77C97.64 -1.41 96.95 -1.23 96.19 -1.23C95.41 -1.23 94.72 -1.4 94.11 -1.76C93.5 -2.12 93.02 -2.63 92.68 -3.3C92.33 -3.97 92.16 -4.74 92.16 -5.62C92.16 -6.52 92.33 -7.29 92.68 -7.96C93.02 -8.62 93.5 -9.13 94.11 -9.49Z M105.1 -4.52L107.21 -4.52C108.46 -4.52 109.41 -4.82 110.07 -5.41C110.72 -6 111.05 -6.82 111.05 -7.87C111.05 -8.91 110.73 -9.73 110.1 -10.33C109.46 -10.93 108.5 -11.23 107.21 -11.23L103.65 -11.23L103.65 0L105.1 0ZM108.99 -6.29C108.6 -5.92 107.97 -5.74 107.09 -5.74L105.1 -5.74L105.1 -10.02L107.09 -10.02C107.97 -10.02 108.6 -9.84 108.99 -9.47C109.38 -9.1 109.57 -8.57 109.57 -7.87C109.57 -7.19 109.38 -6.66 108.99 -6.29Z M123.99 -11.04L122.25 -11.04L118.4 -1.77L114.48 -11.04L112.74 -11.04L112.74 0L114.19 0L114.19 -8.78L117.73 0L119.02 0L122.54 -8.81L122.54 0L123.99 0Z M127.76 -10.05L132.51 -10.05L132.51 -11.23L126.31 -11.23L126.31 0L132.51 0L132.51 -1.18L127.76 -1.18L127.76 -5.1L132.03 -5.1L132.03 -6.21L127.76 -6.21Z M143.11 0L143.11 -11.23L141.66 -11.23L141.66 -2.34L135.83 -11.23L134.38 -11.23L134.38 0L135.83 0L135.83 -8.87L141.66 0Z M152.31 -11.23L144.52 -11.23L144.52 -10.05L147.69 -10.05L147.69 0L149.14 0L149.14 -10.05L152.31 -10.05Z"></path></g><rect id="SvgjsRect6208" width="308.155764006337" height="0.995672002773281" fill="#333333" transform="translate(153.844235993663, 67.9895575435508) scale(1)" light-content="false"></rect></g></g></svg>